# Blender v2.69 (sub 0) OBJ File: ''
# www.blender.org
o DEBUGLight
v -0.052573 -0.141882 -0.000000
v -0.016246 -0.141882 0.050000
v -0.016246 -0.070202 0.050000
v -0.052573 -0.070202 -0.000000
v 0.072361 -0.029858 0.052573
v 0.042532 -0.070202 0.030901
v 0.085065 -0.037710 -0.000000
v -0.016246 -0.070202 -0.050000
v 0.042532 -0.070202 -0.030901
v 0.042532 -0.141882 -0.030901
v -0.016246 -0.141882 -0.050000
v 0.042532 -0.141882 0.030901
v 0.095106 0.014864 0.030901
v -0.027639 -0.029858 0.085065
v 0.026287 -0.037710 0.080901
v -0.000000 0.014864 0.100000
v -0.089443 -0.029858 -0.000000
v -0.068819 -0.037710 0.050000
v -0.095106 0.014864 0.030901
v -0.027639 -0.029858 -0.085065
v -0.068819 -0.037710 -0.050000
v -0.058779 0.014864 -0.080902
v 0.072361 -0.029858 -0.052573
v 0.026287 -0.037710 -0.080901
v 0.058779 0.014864 -0.080902
v 0.058779 0.014864 0.080902
v -0.058779 0.014864 0.080902
v -0.095106 0.014864 -0.030901
v -0.000000 0.014864 -0.100000
v 0.095106 0.014864 -0.030901
v 0.027639 0.059586 0.085065
v 0.068819 0.067437 0.050000
v 0.016246 0.099929 0.050000
v -0.072361 0.059586 0.052573
v -0.026287 0.067437 0.080901
v -0.042532 0.099929 0.030901
v -0.072361 0.059586 -0.052573
v -0.085065 0.067437 -0.000000
v -0.042532 0.099929 -0.030901
v 0.027639 0.059586 -0.085065
v -0.026287 0.067437 -0.080901
v 0.016246 0.099929 -0.050000
v 0.089443 0.059585 -0.000000
v 0.068819 0.067437 -0.050000
v 0.052573 0.099929 -0.000000
v -0.000000 0.114864 -0.000000
vn -0.809018 -0.000000 0.587784
vn 0.700221 -0.661702 0.268033
vn 0.309030 0.000000 -0.951052
vn 1.000000 0.000000 0.000000
vn -0.809018 0.000000 -0.587784
vn 0.904991 -0.330380 0.268030
vn 0.024749 -0.330386 0.943521
vn -0.889697 -0.330380 0.315099
vn -0.574597 -0.330391 -0.748785
vn 0.534568 -0.330391 -0.777868
vn 0.802615 -0.125623 0.583120
vn -0.306562 -0.125631 0.943524
vn -0.992078 -0.125624 -0.000000
vn -0.306562 -0.125631 -0.943524
vn 0.802615 -0.125623 -0.583120
vn 0.408952 0.661697 0.628423
vn -0.471282 0.661709 0.583125
vn -0.700218 0.661710 -0.268021
vn 0.038517 0.661697 -0.748782
vn 0.724042 0.661695 -0.194740
vn -0.038527 -0.661689 0.748788
vn 0.187601 -0.794654 0.577349
vn 0.471294 -0.661702 0.583123
vn 0.700221 -0.661702 -0.268033
vn 0.607058 -0.794657 0.000000
vn 0.309030 -0.000000 0.951052
vn -0.724042 -0.661695 0.194740
vn -0.491125 -0.794654 0.356822
vn -0.408948 -0.661689 0.628434
vn -0.408948 -0.661689 -0.628434
vn -0.491125 -0.794654 -0.356822
vn -0.724042 -0.661695 -0.194740
vn 0.471294 -0.661702 -0.583124
vn 0.187601 -0.794653 -0.577349
vn -0.038527 -0.661689 -0.748788
vn 0.992078 0.125626 0.000000
vn 0.982246 -0.187597 -0.000000
vn 0.904991 -0.330380 -0.268030
vn 0.306562 0.125631 0.943523
vn 0.303524 -0.187603 0.934173
vn 0.534568 -0.330391 0.777868
vn -0.802615 0.125623 0.583120
vn -0.794661 -0.187595 0.577341
vn -0.574597 -0.330392 0.748785
vn -0.802615 0.125623 -0.583120
vn -0.794661 -0.187595 -0.577341
vn -0.889697 -0.330380 -0.315100
vn 0.306562 0.125631 -0.943524
vn 0.303524 -0.187603 -0.934173
vn 0.024750 -0.330386 -0.943521
vn 0.574601 0.330395 0.748781
vn 0.794660 0.187598 0.577341
vn 0.889696 0.330386 0.315098
vn -0.534563 0.330394 0.777871
vn -0.303524 0.187606 0.934172
vn -0.024755 0.330389 0.943520
vn -0.904992 0.330383 -0.268025
vn -0.982245 0.187601 0.000000
vn -0.904992 0.330383 0.268025
vn -0.024755 0.330389 -0.943520
vn -0.303524 0.187606 -0.934172
vn -0.534563 0.330394 -0.777871
vn 0.889696 0.330386 -0.315098
vn 0.794660 0.187598 -0.577341
vn 0.574601 0.330395 -0.748781
vn 0.268037 0.943521 0.194739
vn 0.491125 0.794654 0.356822
vn 0.724042 0.661695 0.194740
vn -0.102386 0.943521 0.315097
vn -0.187601 0.794653 0.577349
vn 0.038517 0.661697 0.748782
vn -0.331315 0.943520 -0.000000
vn -0.607058 0.794657 -0.000000
vn -0.700218 0.661709 0.268021
vn -0.102386 0.943521 -0.315097
vn -0.187601 0.794653 -0.577349
vn -0.471282 0.661709 -0.583125
vn 0.268037 0.943522 -0.194739
vn 0.491125 0.794654 -0.356822
vn 0.408952 0.661697 -0.628423
vn 0.000000 -1.000000 -0.000000
s off
f 1//1 2//1 3//1 4//1
f 5//2 6//2 7//2
f 8//3 9//3 10//3 11//3
f 9//4 6//4 12//4 10//4
f 11//5 1//5 4//5 8//5
f 5//6 7//6 13//6
f 14//7 15//7 16//7
f 17//8 18//8 19//8
f 20//9 21//9 22//9
f 23//10 24//10 25//10
f 5//11 13//11 26//11
f 14//12 16//12 27//12
f 17//13 19//13 28//13
f 20//14 22//14 29//14
f 23//15 25//15 30//15
f 31//16 32//16 33//16
f 34//17 35//17 36//17
f 37//18 38//18 39//18
f 40//19 41//19 42//19
f 43//20 44//20 45//20
f 3//21 15//21 14//21
f 3//22 6//22 15//22
f 6//23 5//23 15//23
f 7//24 9//24 23//24
f 7//25 6//25 9//25
f 2//26 12//26 6//26 3//26
f 4//27 18//27 17//27
f 4//28 3//28 18//28
f 3//29 14//29 18//29
f 8//30 21//30 20//30
f 8//31 4//31 21//31
f 4//32 17//32 21//32
f 9//33 24//33 23//33
f 9//34 8//34 24//34
f 8//35 20//35 24//35
f 13//36 30//36 43//36
f 13//37 7//37 30//37
f 7//38 23//38 30//38
f 16//39 26//39 31//39
f 16//40 15//40 26//40
f 15//41 5//41 26//41
f 19//42 27//42 34//42
f 19//43 18//43 27//43
f 18//44 14//44 27//44
f 22//45 28//45 37//45
f 22//46 21//46 28//46
f 21//47 17//47 28//47
f 25//48 29//48 40//48
f 25//49 24//49 29//49
f 24//50 20//50 29//50
f 26//51 32//51 31//51
f 26//52 13//52 32//52
f 13//53 43//53 32//53
f 27//54 35//54 34//54
f 27//55 16//55 35//55
f 16//56 31//56 35//56
f 28//57 38//57 37//57
f 28//58 19//58 38//58
f 19//59 34//59 38//59
f 29//60 41//60 40//60
f 29//61 22//61 41//61
f 22//62 37//62 41//62
f 30//63 44//63 43//63
f 30//64 25//64 44//64
f 25//65 40//65 44//65
f 33//66 45//66 46//66
f 33//67 32//67 45//67
f 32//68 43//68 45//68
f 36//69 33//69 46//69
f 36//70 35//70 33//70
f 35//71 31//71 33//71
f 39//72 36//72 46//72
f 39//73 38//73 36//73
f 38//74 34//74 36//74
f 42//75 39//75 46//75
f 42//76 41//76 39//76
f 41//77 37//77 39//77
f 45//78 42//78 46//78
f 45//79 44//79 42//79
f 44//80 40//80 42//80
f 2//81 1//81 12//81
f 12//81 1//81 10//81
f 10//81 1//81 11//81
