ply
format ascii 1.0
comment Created by Blender 2.69 (sub 0) - www.blender.org, source file: ''
element vertex 46
property float x
property float y
property float z
property float nx
property float ny
property float nz
element face 83
property list uchar uint vertex_indices
end_header
-0.052573 -0.141882 0.000000 -0.803186 -0.595691 0.000000
-0.016246 -0.141882 0.050000 -0.248177 -0.595691 0.763878
-0.016246 -0.070202 0.050000 -0.265816 -0.509781 0.818171
-0.052573 -0.070202 0.000000 -0.860286 -0.509781 0.000000
0.072361 -0.029858 0.052573 0.723594 -0.447188 0.525712
0.042532 -0.070202 0.030901 0.695975 -0.509781 0.505661
0.085065 -0.037710 0.000000 0.850642 -0.525712 0.000000
-0.016246 -0.070202 -0.050000 -0.265816 -0.509781 -0.818171
0.042532 -0.070202 -0.030901 0.695975 -0.509781 -0.505661
0.042532 -0.141882 -0.030901 0.649800 -0.595691 -0.472091
-0.016246 -0.141882 -0.050000 -0.248177 -0.595691 -0.763878
0.042532 -0.141882 0.030901 0.649800 -0.595691 0.472091
0.095106 0.014864 0.030901 0.951048 0.000000 0.309000
-0.027639 -0.029858 0.085065 -0.276376 -0.447188 0.850642
0.026287 -0.037710 0.080901 0.262856 -0.525712 0.808985
-0.000000 0.014864 0.100000 0.000000 0.000000 0.999969
-0.089443 -0.029858 0.000000 -0.894406 -0.447188 0.000000
-0.068819 -0.037710 0.050000 -0.688162 -0.525712 0.499985
-0.095106 0.014864 0.030901 -0.951048 0.000000 0.309000
-0.027639 -0.029858 -0.085065 -0.276376 -0.447188 -0.850642
-0.068819 -0.037710 -0.050000 -0.688162 -0.525712 -0.499985
-0.058779 0.014864 -0.080902 -0.587756 0.000000 -0.809015
0.072361 -0.029858 -0.052573 0.723594 -0.447188 -0.525712
0.026287 -0.037710 -0.080901 0.262856 -0.525712 -0.808985
0.058779 0.014864 -0.080902 0.587756 0.000000 -0.809015
0.058779 0.014864 0.080902 0.587756 0.000000 0.809015
-0.058779 0.014864 0.080902 -0.587756 0.000000 0.809015
-0.095106 0.014864 -0.030901 -0.951048 0.000000 -0.309000
-0.000000 0.014864 -0.100000 0.000000 0.000000 -0.999969
0.095106 0.014864 -0.030901 0.951048 0.000000 -0.309000
0.027639 0.059586 0.085065 0.276376 0.447218 0.850642
0.068819 0.067437 0.050000 0.688162 0.525712 0.499985
0.016246 0.099929 0.050000 0.162450 0.850642 0.499985
-0.072361 0.059586 0.052573 -0.723594 0.447188 0.525712
-0.026287 0.067437 0.080901 -0.262856 0.525712 0.808985
-0.042532 0.099929 0.030901 -0.425306 0.850642 0.309000
-0.072361 0.059586 -0.052573 -0.723594 0.447188 -0.525712
-0.085065 0.067437 0.000000 -0.850642 0.525712 0.000000
-0.042532 0.099929 -0.030901 -0.425306 0.850642 -0.309000
0.027639 0.059586 -0.085065 0.276376 0.447218 -0.850642
-0.026287 0.067437 -0.080901 -0.262856 0.525712 -0.808985
0.016246 0.099929 -0.050000 0.162450 0.850642 -0.499985
0.089443 0.059585 0.000000 0.894406 0.447188 0.000000
0.068819 0.067437 -0.050000 0.688162 0.525712 -0.499985
0.052573 0.099929 0.000000 0.525712 0.850642 0.000000
-0.000000 0.114864 0.000000 0.000000 1.000000 0.000000
4 0 1 2 3
3 4 5 6
4 7 8 9 10
4 8 5 11 9
4 3 7 10 0
3 4 6 12
3 13 14 15
3 16 17 18
3 19 20 21
3 22 23 24
3 4 12 25
3 13 15 26
3 16 18 27
3 19 21 28
3 22 24 29
3 30 31 32
3 33 34 35
3 36 37 38
3 39 40 41
3 42 43 44
3 2 14 13
3 2 5 14
3 5 4 14
3 6 8 22
3 6 5 8
4 1 11 5 2
3 3 17 16
3 3 2 17
3 2 13 17
3 7 20 19
3 7 3 20
3 3 16 20
3 8 23 22
3 8 7 23
3 7 19 23
3 12 29 42
3 12 6 29
3 6 22 29
3 15 25 30
3 15 14 25
3 14 4 25
3 18 26 33
3 18 17 26
3 17 13 26
3 21 27 36
3 21 20 27
3 20 16 27
3 24 28 39
3 24 23 28
3 23 19 28
3 25 31 30
3 25 12 31
3 12 42 31
3 26 34 33
3 26 15 34
3 15 30 34
3 27 37 36
3 27 18 37
3 18 33 37
3 28 40 39
3 28 21 40
3 21 36 40
3 29 43 42
3 29 24 43
3 24 39 43
3 32 44 45
3 32 31 44
3 31 42 44
3 35 32 45
3 35 34 32
3 34 30 32
3 38 35 45
3 38 37 35
3 37 33 35
3 41 38 45
3 41 40 38
3 40 36 38
3 44 41 45
3 44 43 41
3 43 39 41
3 11 1 0
3 9 11 0
3 9 0 10
