ply
format ascii 1.0
comment Created by Blender 2.69 (sub 0) - www.blender.org, source file: ''
element vertex 240
property float x
property float y
property float z
property float nx
property float ny
property float nz
property float s
property float t
element face 80
property list uchar uint vertex_indices
end_header
0.000000 -1.000000 0.000000 0.102381 -0.943523 0.315090 1.000000 0.500000
0.425323 -0.850654 0.309011 0.102381 -0.943523 0.315090 0.926209 0.400002
-0.162456 -0.850654 0.499995 0.102381 -0.943523 0.315090 1.030033 0.333335
0.723607 -0.447220 0.525725 0.700224 -0.661699 0.268032 0.838105 0.323794
0.425323 -0.850654 0.309011 0.700224 -0.661699 0.268032 0.926209 0.400002
0.850648 -0.525736 0.000000 0.700224 -0.661699 0.268032 0.838105 0.500000
0.000000 -1.000000 0.000000 -0.268034 -0.943523 0.194737 0.000000 0.500000
-0.162456 -0.850654 0.499995 -0.268034 -0.943523 0.194737 0.030033 0.333335
-0.525730 -0.850652 0.000000 -0.268034 -0.943523 0.194737 0.088104 0.500000
0.000000 -1.000000 0.000000 -0.268034 -0.943523 -0.194737 0.000000 0.500000
-0.525730 -0.850652 0.000000 -0.268034 -0.943523 -0.194737 0.088104 0.500000
-0.162456 -0.850654 -0.499995 -0.268034 -0.943523 -0.194737 0.030033 0.666665
0.000000 -1.000000 0.000000 0.102381 -0.943523 -0.315090 1.000000 0.500000
-0.162456 -0.850654 -0.499995 0.102381 -0.943523 -0.315090 1.030033 0.666665
0.425323 -0.850654 -0.309011 0.102381 -0.943523 -0.315090 0.926209 0.599998
0.723607 -0.447220 0.525725 0.904989 -0.330384 0.268031 0.838105 0.323794
0.850648 -0.525736 0.000000 0.904989 -0.330384 0.268031 0.838105 0.500000
0.951058 0.000000 0.309013 0.904989 -0.330384 0.268031 0.750000 0.400001
-0.276388 -0.447220 0.850649 0.024747 -0.330386 0.943521 1.088102 0.176209
0.262869 -0.525738 0.809012 0.024747 -0.330386 0.943521 0.926208 0.200003
0.000000 0.000000 1.000000 0.024747 -0.330386 0.943521 1.176208 0.000000
-0.894426 -0.447216 0.000000 -0.889697 -0.330385 0.315095 0.176208 0.500000
-0.688189 -0.525736 0.499997 -0.889697 -0.330385 0.315095 0.146173 0.333335
-0.951058 0.000000 0.309013 -0.889697 -0.330385 0.315095 0.250000 0.400002
-0.276388 -0.447220 -0.850649 -0.574602 -0.330388 -0.748784 0.088102 0.823791
-0.688189 -0.525736 -0.499997 -0.574602 -0.330388 -0.748784 0.146173 0.666666
-0.587786 0.000000 -0.809017 -0.574602 -0.330388 -0.748784 0.250000 0.800000
0.723607 -0.447220 -0.525725 0.534576 -0.330386 -0.777865 0.838105 0.676206
0.262869 -0.525738 -0.809012 0.534576 -0.330386 -0.777865 0.926208 0.799997
0.587786 0.000000 -0.809017 0.534576 -0.330386 -0.777865 0.750000 0.800000
0.723607 -0.447220 0.525725 0.802609 -0.125627 0.583126 0.838105 0.323794
0.951058 0.000000 0.309013 0.802609 -0.125627 0.583126 0.750000 0.400001
0.587786 0.000000 0.809017 0.802609 -0.125627 0.583126 0.750000 0.200000
-0.276388 -0.447220 0.850649 -0.306569 -0.125629 0.943522 0.088102 0.176209
0.000000 0.000000 1.000000 -0.306569 -0.125629 0.943522 0.176208 0.000000
-0.587786 0.000000 0.809017 -0.306569 -0.125629 0.943522 0.250000 0.200000
-0.894426 -0.447216 0.000000 -0.992077 -0.125628 0.000000 0.176208 0.500000
-0.951058 0.000000 0.309013 -0.992077 -0.125628 0.000000 0.250000 0.400002
-0.951058 0.000000 -0.309013 -0.992077 -0.125628 0.000000 0.250000 0.599999
-0.276388 -0.447220 -0.850649 -0.306569 -0.125629 -0.943522 1.088102 0.823791
-0.587786 0.000000 -0.809017 -0.306569 -0.125629 -0.943522 0.250000 0.800000
0.000000 0.000000 -1.000000 -0.306569 -0.125629 -0.943522 0.676208 1.000000
0.723607 -0.447220 -0.525725 0.802609 -0.125627 -0.583126 0.838105 0.676206
0.587786 0.000000 -0.809017 0.802609 -0.125627 -0.583126 0.750000 0.800000
0.951058 0.000000 -0.309013 0.802609 -0.125627 -0.583126 0.750000 0.599999
0.276388 0.447220 0.850649 0.408946 0.661698 0.628425 0.588102 0.176209
0.688189 0.525736 0.499997 0.408946 0.661698 0.628425 0.646173 0.333334
0.162456 0.850654 0.499995 0.408946 0.661698 0.628425 0.530033 0.333335
-0.723607 0.447220 0.525725 -0.471300 0.661699 0.583122 0.338105 0.323794
-0.262869 0.525738 0.809012 -0.471300 0.661699 0.583122 0.426208 0.200003
-0.425323 0.850654 0.309011 -0.471300 0.661699 0.583122 0.426209 0.400002
-0.723607 0.447220 -0.525725 -0.700224 0.661699 -0.268032 0.338105 0.676206
-0.850648 0.525736 0.000000 -0.700224 0.661699 -0.268032 0.338105 0.500000
-0.425323 0.850654 -0.309011 -0.700224 0.661699 -0.268032 0.426209 0.599998
0.276388 0.447220 -0.850649 0.038530 0.661699 -0.748779 0.588102 0.823791
-0.262869 0.525738 -0.809012 0.038530 0.661699 -0.748779 0.426208 0.799997
0.162456 0.850654 -0.499995 0.038530 0.661699 -0.748779 0.530033 0.666665
0.894426 0.447216 0.000000 0.724042 0.661695 -0.194736 0.676208 0.500000
0.688189 0.525736 -0.499997 0.724042 0.661695 -0.194736 0.646173 0.666665
0.525730 0.850652 0.000000 0.724042 0.661695 -0.194736 0.588104 0.500000
-0.162456 -0.850654 0.499995 -0.038530 -0.661699 0.748779 1.030033 0.333335
0.262869 -0.525738 0.809012 -0.038530 -0.661699 0.748779 0.926208 0.200003
-0.276388 -0.447220 0.850649 -0.038530 -0.661699 0.748779 1.088102 0.176209
-0.162456 -0.850654 0.499995 0.187594 -0.794658 0.577345 1.030033 0.333335
0.425323 -0.850654 0.309011 0.187594 -0.794658 0.577345 0.926209 0.400002
0.262869 -0.525738 0.809012 0.187594 -0.794658 0.577345 0.926208 0.200003
0.425323 -0.850654 0.309011 0.471300 -0.661699 0.583122 0.926209 0.400002
0.723607 -0.447220 0.525725 0.471300 -0.661699 0.583122 0.838105 0.323794
0.262869 -0.525738 0.809012 0.471300 -0.661699 0.583122 0.926208 0.200003
0.850648 -0.525736 0.000000 0.700224 -0.661699 -0.268032 0.838105 0.500000
0.425323 -0.850654 -0.309011 0.700224 -0.661699 -0.268032 0.926209 0.599998
0.723607 -0.447220 -0.525725 0.700224 -0.661699 -0.268032 0.838105 0.676206
0.850648 -0.525736 0.000000 0.607060 -0.794656 0.000000 0.838105 0.500000
0.425323 -0.850654 0.309011 0.607060 -0.794656 0.000000 0.926209 0.400002
0.425323 -0.850654 -0.309011 0.607060 -0.794656 0.000000 0.926209 0.599998
0.425323 -0.850654 0.309011 0.331305 -0.943524 0.000000 0.926209 0.400002
0.000000 -1.000000 0.000000 0.331305 -0.943524 0.000000 1.000000 0.500000
0.425323 -0.850654 -0.309011 0.331305 -0.943524 0.000000 0.926209 0.599998
-0.525730 -0.850652 0.000000 -0.724042 -0.661695 0.194736 0.088104 0.500000
-0.688189 -0.525736 0.499997 -0.724042 -0.661695 0.194736 0.146173 0.333335
-0.894426 -0.447216 0.000000 -0.724042 -0.661695 0.194736 0.176208 0.500000
-0.525730 -0.850652 0.000000 -0.491119 -0.794657 0.356821 0.088104 0.500000
-0.162456 -0.850654 0.499995 -0.491119 -0.794657 0.356821 0.030033 0.333335
-0.688189 -0.525736 0.499997 -0.491119 -0.794657 0.356821 0.146173 0.333335
-0.162456 -0.850654 0.499995 -0.408946 -0.661698 0.628425 0.030033 0.333335
-0.276388 -0.447220 0.850649 -0.408946 -0.661698 0.628425 0.088102 0.176209
-0.688189 -0.525736 0.499997 -0.408946 -0.661698 0.628425 0.146173 0.333335
-0.162456 -0.850654 -0.499995 -0.408946 -0.661698 -0.628425 0.030033 0.666665
-0.688189 -0.525736 -0.499997 -0.408946 -0.661698 -0.628425 0.146173 0.666666
-0.276388 -0.447220 -0.850649 -0.408946 -0.661698 -0.628425 0.088102 0.823791
-0.162456 -0.850654 -0.499995 -0.491119 -0.794657 -0.356821 0.030033 0.666665
-0.525730 -0.850652 0.000000 -0.491119 -0.794657 -0.356821 0.088104 0.500000
-0.688189 -0.525736 -0.499997 -0.491119 -0.794657 -0.356821 0.146173 0.666666
-0.525730 -0.850652 0.000000 -0.724042 -0.661695 -0.194736 0.088104 0.500000
-0.894426 -0.447216 0.000000 -0.724042 -0.661695 -0.194736 0.176208 0.500000
-0.688189 -0.525736 -0.499997 -0.724042 -0.661695 -0.194736 0.146173 0.666666
0.425323 -0.850654 -0.309011 0.471300 -0.661699 -0.583122 0.926209 0.599998
0.262869 -0.525738 -0.809012 0.471300 -0.661699 -0.583122 0.926208 0.799997
0.723607 -0.447220 -0.525725 0.471300 -0.661699 -0.583122 0.838105 0.676206
0.425323 -0.850654 -0.309011 0.187594 -0.794658 -0.577345 0.926209 0.599998
-0.162456 -0.850654 -0.499995 0.187594 -0.794658 -0.577345 1.030033 0.666665
0.262869 -0.525738 -0.809012 0.187594 -0.794658 -0.577345 0.926208 0.799997
-0.162456 -0.850654 -0.499995 -0.038530 -0.661699 -0.748779 1.030033 0.666665
-0.276388 -0.447220 -0.850649 -0.038530 -0.661699 -0.748779 1.088102 0.823791
0.262869 -0.525738 -0.809012 -0.038530 -0.661699 -0.748779 0.926208 0.799997
0.951058 0.000000 0.309013 0.992077 0.125628 -0.000000 0.750000 0.400001
0.951058 0.000000 -0.309013 0.992077 0.125628 -0.000000 0.750000 0.599999
0.894426 0.447216 0.000000 0.992077 0.125628 -0.000000 0.676208 0.500000
0.951058 0.000000 0.309013 0.982246 -0.187599 0.000000 0.750000 0.400001
0.850648 -0.525736 0.000000 0.982246 -0.187599 0.000000 0.838105 0.500000
0.951058 0.000000 -0.309013 0.982246 -0.187599 0.000000 0.750000 0.599999
0.850648 -0.525736 0.000000 0.904989 -0.330384 -0.268031 0.838105 0.500000
0.723607 -0.447220 -0.525725 0.904989 -0.330384 -0.268031 0.838105 0.676206
0.951058 0.000000 -0.309013 0.904989 -0.330384 -0.268031 0.750000 0.599999
0.000000 0.000000 1.000000 0.306569 0.125629 0.943522 1.176208 0.000000
0.587786 0.000000 0.809017 0.306569 0.125629 0.943522 0.750000 0.200000
0.276388 0.447220 0.850649 0.306569 0.125629 0.943522 0.588102 0.176209
0.000000 0.000000 1.000000 0.303531 -0.187597 0.934171 1.176208 0.000000
0.262869 -0.525738 0.809012 0.303531 -0.187597 0.934171 0.926208 0.200003
0.587786 0.000000 0.809017 0.303531 -0.187597 0.934171 0.750000 0.200000
0.262869 -0.525738 0.809012 0.534576 -0.330386 0.777865 0.926208 0.200003
0.723607 -0.447220 0.525725 0.534576 -0.330386 0.777865 0.838105 0.323794
0.587786 0.000000 0.809017 0.534576 -0.330386 0.777865 0.750000 0.200000
-0.951058 0.000000 0.309013 -0.802609 0.125627 0.583126 0.250000 0.400002
-0.587786 0.000000 0.809017 -0.802609 0.125627 0.583126 0.250000 0.200000
-0.723607 0.447220 0.525725 -0.802609 0.125627 0.583126 0.338105 0.323794
-0.951058 0.000000 0.309013 -0.794656 -0.187595 0.577348 0.250000 0.400002
-0.688189 -0.525736 0.499997 -0.794656 -0.187595 0.577348 0.146173 0.333335
-0.587786 0.000000 0.809017 -0.794656 -0.187595 0.577348 0.250000 0.200000
-0.688189 -0.525736 0.499997 -0.574602 -0.330388 0.748784 0.146173 0.333335
-0.276388 -0.447220 0.850649 -0.574602 -0.330388 0.748784 0.088102 0.176209
-0.587786 0.000000 0.809017 -0.574602 -0.330388 0.748784 0.250000 0.200000
-0.587786 0.000000 -0.809017 -0.802609 0.125627 -0.583126 0.250000 0.800000
-0.951058 0.000000 -0.309013 -0.802609 0.125627 -0.583126 0.250000 0.599999
-0.723607 0.447220 -0.525725 -0.802609 0.125627 -0.583126 0.338105 0.676206
-0.587786 0.000000 -0.809017 -0.794656 -0.187595 -0.577348 0.250000 0.800000
-0.688189 -0.525736 -0.499997 -0.794656 -0.187595 -0.577348 0.146173 0.666666
-0.951058 0.000000 -0.309013 -0.794656 -0.187595 -0.577348 0.250000 0.599999
-0.688189 -0.525736 -0.499997 -0.889697 -0.330385 -0.315095 0.146173 0.666666
-0.894426 -0.447216 0.000000 -0.889697 -0.330385 -0.315095 0.176208 0.500000
-0.951058 0.000000 -0.309013 -0.889697 -0.330385 -0.315095 0.250000 0.599999
0.587786 0.000000 -0.809017 0.306569 0.125629 -0.943522 0.750000 0.800000
0.000000 0.000000 -1.000000 0.306569 0.125629 -0.943522 0.676208 1.000000
0.276388 0.447220 -0.850649 0.306569 0.125629 -0.943522 0.588102 0.823791
0.587786 0.000000 -0.809017 0.303531 -0.187597 -0.934171 0.750000 0.800000
0.262869 -0.525738 -0.809012 0.303531 -0.187597 -0.934171 0.926208 0.799997
0.000000 0.000000 -1.000000 0.303531 -0.187597 -0.934171 0.676208 1.000000
0.262869 -0.525738 -0.809012 0.024747 -0.330386 -0.943521 0.926208 0.799997
-0.276388 -0.447220 -0.850649 0.024747 -0.330386 -0.943521 1.088102 0.823791
0.000000 0.000000 -1.000000 0.024747 -0.330386 -0.943521 0.676208 1.000000
0.587786 0.000000 0.809017 0.574602 0.330388 0.748784 0.750000 0.200000
0.688189 0.525736 0.499997 0.574602 0.330388 0.748784 0.646173 0.333334
0.276388 0.447220 0.850649 0.574602 0.330388 0.748784 0.588102 0.176209
0.587786 0.000000 0.809017 0.794656 0.187595 0.577348 0.750000 0.200000
0.951058 0.000000 0.309013 0.794656 0.187595 0.577348 0.750000 0.400001
0.688189 0.525736 0.499997 0.794656 0.187595 0.577348 0.646173 0.333334
0.951058 0.000000 0.309013 0.889697 0.330385 0.315095 0.750000 0.400001
0.894426 0.447216 0.000000 0.889697 0.330385 0.315095 0.676208 0.500000
0.688189 0.525736 0.499997 0.889697 0.330385 0.315095 0.646173 0.333334
-0.587786 0.000000 0.809017 -0.534576 0.330386 0.777865 0.250000 0.200000
-0.262869 0.525738 0.809012 -0.534576 0.330386 0.777865 0.426208 0.200003
-0.723607 0.447220 0.525725 -0.534576 0.330386 0.777865 0.338105 0.323794
-0.587786 0.000000 0.809017 -0.303531 0.187597 0.934171 0.250000 0.200000
0.000000 0.000000 1.000000 -0.303531 0.187597 0.934171 0.176208 0.000000
-0.262869 0.525738 0.809012 -0.303531 0.187597 0.934171 0.426208 0.200003
0.000000 0.000000 1.000000 -0.024747 0.330386 0.943521 0.176208 0.000000
0.276388 0.447220 0.850649 -0.024747 0.330386 0.943521 0.588102 0.176209
-0.262869 0.525738 0.809012 -0.024747 0.330386 0.943521 0.426208 0.200003
-0.951058 0.000000 -0.309013 -0.904989 0.330384 -0.268031 0.250000 0.599999
-0.850648 0.525736 0.000000 -0.904989 0.330384 -0.268031 0.338105 0.500000
-0.723607 0.447220 -0.525725 -0.904989 0.330384 -0.268031 0.338105 0.676206
-0.951058 0.000000 -0.309013 -0.982246 0.187599 0.000000 0.250000 0.599999
-0.951058 0.000000 0.309013 -0.982246 0.187599 0.000000 0.250000 0.400002
-0.850648 0.525736 0.000000 -0.982246 0.187599 0.000000 0.338105 0.500000
-0.951058 0.000000 0.309013 -0.904989 0.330384 0.268031 0.250000 0.400002
-0.723607 0.447220 0.525725 -0.904989 0.330384 0.268031 0.338105 0.323794
-0.850648 0.525736 0.000000 -0.904989 0.330384 0.268031 0.338105 0.500000
0.000000 0.000000 -1.000000 -0.024747 0.330386 -0.943521 0.676208 1.000000
-0.262869 0.525738 -0.809012 -0.024747 0.330386 -0.943521 0.426208 0.799997
0.276388 0.447220 -0.850649 -0.024747 0.330386 -0.943521 0.588102 0.823791
0.000000 0.000000 -1.000000 -0.303531 0.187597 -0.934171 0.676208 1.000000
-0.587786 0.000000 -0.809017 -0.303531 0.187597 -0.934171 0.250000 0.800000
-0.262869 0.525738 -0.809012 -0.303531 0.187597 -0.934171 0.426208 0.799997
-0.587786 0.000000 -0.809017 -0.534576 0.330386 -0.777865 0.250000 0.800000
-0.723607 0.447220 -0.525725 -0.534576 0.330386 -0.777865 0.338105 0.676206
-0.262869 0.525738 -0.809012 -0.534576 0.330386 -0.777865 0.426208 0.799997
0.951058 0.000000 -0.309013 0.889697 0.330385 -0.315095 0.750000 0.599999
0.688189 0.525736 -0.499997 0.889697 0.330385 -0.315095 0.646173 0.666665
0.894426 0.447216 0.000000 0.889697 0.330385 -0.315095 0.676208 0.500000
0.951058 0.000000 -0.309013 0.794656 0.187595 -0.577348 0.750000 0.599999
0.587786 0.000000 -0.809017 0.794656 0.187595 -0.577348 0.750000 0.800000
0.688189 0.525736 -0.499997 0.794656 0.187595 -0.577348 0.646173 0.666665
0.587786 0.000000 -0.809017 0.574602 0.330388 -0.748784 0.750000 0.800000
0.276388 0.447220 -0.850649 0.574602 0.330388 -0.748784 0.588102 0.823791
0.688189 0.525736 -0.499997 0.574602 0.330388 -0.748784 0.646173 0.666665
0.162456 0.850654 0.499995 0.268034 0.943523 0.194737 0.530033 0.333335
0.525730 0.850652 0.000000 0.268034 0.943523 0.194737 0.588104 0.500000
0.000000 1.000000 0.000000 0.268034 0.943523 0.194737 0.500000 0.500000
0.162456 0.850654 0.499995 0.491119 0.794657 0.356821 0.530033 0.333335
0.688189 0.525736 0.499997 0.491119 0.794657 0.356821 0.646173 0.333334
0.525730 0.850652 0.000000 0.491119 0.794657 0.356821 0.588104 0.500000
0.688189 0.525736 0.499997 0.724042 0.661695 0.194736 0.646173 0.333334
0.894426 0.447216 0.000000 0.724042 0.661695 0.194736 0.676208 0.500000
0.525730 0.850652 0.000000 0.724042 0.661695 0.194736 0.588104 0.500000
-0.425323 0.850654 0.309011 -0.102381 0.943523 0.315090 0.426209 0.400002
0.162456 0.850654 0.499995 -0.102381 0.943523 0.315090 0.530033 0.333335
0.000000 1.000000 0.000000 -0.102381 0.943523 0.315090 0.500000 0.500000
-0.425323 0.850654 0.309011 -0.187594 0.794658 0.577345 0.426209 0.400002
-0.262869 0.525738 0.809012 -0.187594 0.794658 0.577345 0.426208 0.200003
0.162456 0.850654 0.499995 -0.187594 0.794658 0.577345 0.530033 0.333335
-0.262869 0.525738 0.809012 0.038530 0.661699 0.748779 0.426208 0.200003
0.276388 0.447220 0.850649 0.038530 0.661699 0.748779 0.588102 0.176209
0.162456 0.850654 0.499995 0.038530 0.661699 0.748779 0.530033 0.333335
-0.425323 0.850654 -0.309011 -0.331305 0.943524 0.000000 0.426209 0.599998
-0.425323 0.850654 0.309011 -0.331305 0.943524 0.000000 0.426209 0.400002
0.000000 1.000000 0.000000 -0.331305 0.943524 0.000000 0.500000 0.500000
-0.425323 0.850654 -0.309011 -0.607060 0.794656 0.000000 0.426209 0.599998
-0.850648 0.525736 0.000000 -0.607060 0.794656 0.000000 0.338105 0.500000
-0.425323 0.850654 0.309011 -0.607060 0.794656 0.000000 0.426209 0.400002
-0.850648 0.525736 0.000000 -0.700224 0.661699 0.268032 0.338105 0.500000
-0.723607 0.447220 0.525725 -0.700224 0.661699 0.268032 0.338105 0.323794
-0.425323 0.850654 0.309011 -0.700224 0.661699 0.268032 0.426209 0.400002
0.162456 0.850654 -0.499995 -0.102381 0.943523 -0.315090 0.530033 0.666665
-0.425323 0.850654 -0.309011 -0.102381 0.943523 -0.315090 0.426209 0.599998
0.000000 1.000000 0.000000 -0.102381 0.943523 -0.315090 0.500000 0.500000
0.162456 0.850654 -0.499995 -0.187594 0.794658 -0.577345 0.530033 0.666665
-0.262869 0.525738 -0.809012 -0.187594 0.794658 -0.577345 0.426208 0.799997
-0.425323 0.850654 -0.309011 -0.187594 0.794658 -0.577345 0.426209 0.599998
-0.262869 0.525738 -0.809012 -0.471300 0.661699 -0.583122 0.426208 0.799997
-0.723607 0.447220 -0.525725 -0.471300 0.661699 -0.583122 0.338105 0.676206
-0.425323 0.850654 -0.309011 -0.471300 0.661699 -0.583122 0.426209 0.599998
0.525730 0.850652 0.000000 0.268034 0.943523 -0.194737 0.588104 0.500000
0.162456 0.850654 -0.499995 0.268034 0.943523 -0.194737 0.530033 0.666665
0.000000 1.000000 0.000000 0.268034 0.943523 -0.194737 0.500000 0.500000
0.525730 0.850652 0.000000 0.491119 0.794657 -0.356821 0.588104 0.500000
0.688189 0.525736 -0.499997 0.491119 0.794657 -0.356821 0.646173 0.666665
0.162456 0.850654 -0.499995 0.491119 0.794657 -0.356821 0.530033 0.666665
0.688189 0.525736 -0.499997 0.408946 0.661698 -0.628425 0.646173 0.666665
0.276388 0.447220 -0.850649 0.408946 0.661698 -0.628425 0.588102 0.823791
0.162456 0.850654 -0.499995 0.408946 0.661698 -0.628425 0.530033 0.666665
3 0 1 2
3 3 4 5
3 6 7 8
3 9 10 11
3 12 13 14
3 15 16 17
3 18 19 20
3 21 22 23
3 24 25 26
3 27 28 29
3 30 31 32
3 33 34 35
3 36 37 38
3 39 40 41
3 42 43 44
3 45 46 47
3 48 49 50
3 51 52 53
3 54 55 56
3 57 58 59
3 60 61 62
3 63 64 65
3 66 67 68
3 69 70 71
3 72 73 74
3 75 76 77
3 78 79 80
3 81 82 83
3 84 85 86
3 87 88 89
3 90 91 92
3 93 94 95
3 96 97 98
3 99 100 101
3 102 103 104
3 105 106 107
3 108 109 110
3 111 112 113
3 114 115 116
3 117 118 119
3 120 121 122
3 123 124 125
3 126 127 128
3 129 130 131
3 132 133 134
3 135 136 137
3 138 139 140
3 141 142 143
3 144 145 146
3 147 148 149
3 150 151 152
3 153 154 155
3 156 157 158
3 159 160 161
3 162 163 164
3 165 166 167
3 168 169 170
3 171 172 173
3 174 175 176
3 177 178 179
3 180 181 182
3 183 184 185
3 186 187 188
3 189 190 191
3 192 193 194
3 195 196 197
3 198 199 200
3 201 202 203
3 204 205 206
3 207 208 209
3 210 211 212
3 213 214 215
3 216 217 218
3 219 220 221
3 222 223 224
3 225 226 227
3 228 229 230
3 231 232 233
3 234 235 236
3 237 238 239
